<svg xmlns="http://www.w3.org/2000/svg" viewBox="0 0 1024 1024" width="1024" height="1024">
  <circle cx="512.0" cy="512.0" r="488.0" fill="#005243"/>
  <g transform="translate(41.61 227.46) scale(0.60304)">
    <path d="M 893.000 608.970 C 901.818 607.114 913.972 602.149 918.380 598.602 C 919.987 597.309 920.311 595.375 920.612 585.295 L 920.965 573.500 L 919.538 580.293 C 917.286 591.010 912.349 597.256 901.972 602.514 C 891.409 607.867 871.353 609.911 857.500 607.047 C 827.554 600.855 806.540 578.237 797.453 542.414 C 794.723 531.651 792.000 512.773 792.000 504.606 L 792.000 499.314 L 898.250 498.606 C 1017.338 497.811 1037.951 497.272 1042.500 494.830 C 1044.150 493.944 1051.790 490.807 1059.478 487.860 C 1073.022 482.666 1073.768 482.500 1083.478 482.500 C 1093.328 482.500 1093.646 482.575 1102.000 486.838 C 1106.675 489.224 1111.771 492.374 1113.325 493.838 C 1117.929 498.177 1122.000 507.596 1122.000 513.909 L 1122.000 519.347 L 1129.750 511.819 C 1139.154 502.685 1141.843 501.224 1151.521 499.997 C 1162.722 498.577 1259.869 500.904 1320.000 504.032 C 1355.449 505.877 1431.829 511.787 1456.500 514.595 C 1467.882 515.890 1461.407 514.105 1447.191 512.028 C 1386.299 503.132 1284.156 495.860 1201.000 494.501 C 1183.125 494.209 1162.872 493.465 1155.993 492.847 C 1143.616 491.736 1143.420 491.751 1137.089 494.308 C 1129.903 497.211 1129.566 497.140 1121.025 490.920 C 1114.620 486.256 1101.414 479.482 1095.068 477.606 C 1088.464 475.653 1077.289 475.547 1070.434 477.373 C 1067.647 478.115 1061.797 480.318 1057.434 482.269 C 1039.261 490.394 1037.773 490.577 978.500 492.009 C 945.713 492.800 929.293 492.794 918.000 491.987 C 909.475 491.377 896.650 490.475 889.500 489.983 C 882.350 489.490 857.199 489.067 833.610 489.043 L 790.719 489.000 L 791.291 460.250 C 791.666 441.352 792.421 427.902 793.493 421.000 C 800.848 373.631 820.460 342.434 845.638 338.049 C 854.444 336.516 862.207 338.054 866.295 342.142 C 869.296 345.142 869.339 345.554 867.443 353.256 C 866.613 356.626 868.340 359.000 871.622 359.000 C 877.957 359.000 880.255 349.833 875.374 344.033 C 870.662 338.433 865.764 336.647 853.872 336.193 C 835.878 335.506 824.886 340.067 811.000 353.982 C 797.376 367.635 788.493 385.168 782.114 411.000 C 777.770 428.590 776.023 443.925 775.305 470.750 L 774.683 494.000 L 769.091 493.936 C 766.016 493.901 756.975 493.455 749.000 492.946 C 741.025 492.436 709.525 491.574 679.000 491.030 C 648.475 490.485 601.225 489.600 574.000 489.062 C 546.775 488.524 490.188 488.065 448.250 488.042 L 372.000 488.000 L 372.009 439.750 C 372.013 413.212 372.463 386.461 373.008 380.302 C 375.308 354.327 385.388 338.345 401.594 334.981 C 408.576 333.531 416.728 335.091 420.516 338.603 C 423.278 341.162 423.319 341.634 421.443 349.256 C 420.135 354.569 425.906 357.094 430.000 353.000 C 434.442 348.558 431.244 339.727 423.789 335.850 C 417.864 332.768 402.762 332.055 394.469 334.466 C 378.706 339.049 367.651 352.181 362.454 372.500 C 360.869 378.698 360.618 385.731 360.269 433.891 L 359.875 488.283 L 336.687 487.391 C 308.693 486.315 258.985 486.762 253.649 488.138 C 251.531 488.685 249.545 488.879 249.237 488.570 C 248.696 488.030 249.059 487.202 252.801 480.424 C 255.818 474.960 266.149 466.101 281.500 455.813 C 289.750 450.284 296.455 445.364 296.400 444.880 C 296.345 444.396 296.232 443.562 296.150 443.026 C 295.860 441.140 290.045 439.000 285.213 439.000 C 280.496 439.000 268.289 440.610 254.925 442.995 C 240.825 445.511 225.446 450.304 215.500 455.282 C 212.200 456.933 206.575 459.393 203.000 460.749 C 199.425 462.104 192.450 464.779 187.500 466.694 C 182.550 468.608 176.841 470.798 174.812 471.561 C 168.364 473.985 151.534 482.136 150.917 483.134 C 150.256 484.204 148.505 485.216 134.346 492.714 C 128.931 495.581 122.624 499.406 120.331 501.214 C 118.038 503.021 113.678 506.406 110.642 508.736 C 107.607 511.066 103.858 514.666 102.311 516.735 C 100.765 518.804 98.038 522.030 96.250 523.902 C 92.177 528.169 92.177 529.002 96.250 528.993 C 99.186 528.987 109.439 523.340 114.046 519.191 C 117.867 515.751 132.959 506.908 146.498 500.176 C 154.749 496.074 164.060 491.190 167.190 489.323 C 170.319 487.456 181.119 482.833 191.190 479.050 C 201.260 475.266 214.000 470.412 219.500 468.263 C 235.159 462.143 244.772 459.000 247.832 459.000 C 250.486 459.000 250.179 459.473 242.474 467.250 C 232.922 476.891 229.191 482.213 226.115 490.585 C 223.610 497.403 223.983 501.385 227.291 503.156 C 229.609 504.396 244.115 503.544 247.004 501.998 C 250.119 500.331 292.677 499.116 326.785 499.720 L 360.070 500.310 L 359.785 550.620 C 359.461 607.792 360.154 603.585 350.725 605.638 C 346.230 606.617 348.435 606.773 366.500 606.760 C 384.781 606.746 386.759 606.598 381.780 605.622 C 371.777 603.660 372.540 608.052 372.215 550.567 L 371.930 500.203 L 413.215 499.570 C 495.371 498.310 575.000 497.936 575.000 498.810 C 575.000 499.318 617.694 499.486 675.500 499.205 L 776.000 498.718 L 776.000 503.808 C 776.000 511.968 778.787 530.960 781.552 541.640 C 784.617 553.477 792.201 569.814 798.327 577.776 C 811.334 594.679 827.507 604.768 849.105 609.454 C 859.100 611.622 881.572 611.374 893.000 608.970 Z M 443.550 603.524 C 446.134 602.009 449.935 599.246 451.996 597.385 C 454.056 595.523 456.025 594.000 456.371 594.000 C 456.717 594.000 457.000 595.820 457.000 598.045 C 457.000 604.040 460.323 607.000 467.053 607.000 C 473.227 607.000 478.305 604.784 481.088 600.877 C 483.485 597.510 482.837 597.197 479.273 600.000 C 476.122 602.478 469.804 602.672 467.872 600.350 C 466.817 599.081 466.385 592.671 466.000 572.600 C 465.510 547.031 465.449 546.409 462.987 542.013 C 459.205 535.258 453.650 532.553 443.500 532.523 C 433.920 532.495 427.789 534.559 423.109 539.387 C 419.371 543.244 416.881 549.503 417.942 552.372 C 419.003 555.239 422.338 556.152 424.984 554.299 C 426.975 552.904 427.130 552.200 426.521 547.318 C 425.715 540.872 427.074 538.142 432.326 535.649 C 437.082 533.392 445.685 533.510 449.580 535.886 C 454.371 538.807 456.000 543.383 456.000 553.923 C 456.000 562.439 455.851 563.104 453.750 563.971 C 452.512 564.481 446.635 566.794 440.689 569.111 C 422.118 576.348 415.000 582.832 415.000 592.513 C 415.000 598.312 417.027 601.776 422.411 605.176 C 426.963 608.051 437.190 607.251 443.550 603.524 Z M 531.096 605.493 C 528.674 604.738 526.318 603.531 525.861 602.810 C 525.404 602.090 525.024 590.226 525.015 576.446 L 525.000 551.392 L 527.979 546.694 C 531.197 541.620 536.114 538.010 539.816 538.004 C 542.838 537.999 546.000 539.725 546.000 541.380 C 546.000 542.101 546.902 543.506 548.004 544.504 C 549.652 545.995 550.447 546.117 552.476 545.193 C 555.933 543.618 556.770 539.508 554.305 536.207 C 548.666 528.654 535.020 532.592 527.895 543.827 L 525.000 548.392 L 525.000 540.579 C 525.000 533.582 524.817 532.828 523.250 533.353 C 522.288 533.675 517.790 535.244 513.256 536.839 L 505.012 539.738 L 509.150 540.293 C 511.426 540.599 513.666 541.445 514.129 542.174 C 514.591 542.903 514.976 556.351 514.985 572.059 C 515.002 603.471 515.014 603.405 508.862 605.631 C 505.957 606.683 507.537 606.849 520.500 606.857 C 534.681 606.866 535.260 606.791 531.096 605.493 Z M 606.212 605.652 C 603.854 605.018 601.498 603.825 600.978 603.000 C 600.442 602.151 600.024 589.535 600.015 573.946 L 600.000 546.392 L 603.250 543.253 C 606.943 539.685 614.316 536.055 617.934 536.022 C 622.468 535.981 628.492 539.755 631.066 544.250 C 633.456 548.422 633.506 548.994 633.808 575.580 C 634.144 605.223 634.380 603.997 628.000 605.820 C 625.272 606.599 627.808 606.824 639.500 606.840 C 653.987 606.860 654.341 606.812 649.857 605.431 C 647.304 604.645 644.979 603.389 644.692 602.639 C 644.404 601.889 644.043 588.858 643.889 573.682 C 643.574 542.487 643.141 544.346 651.915 539.204 C 660.441 534.208 670.212 536.509 674.402 544.500 C 676.350 548.215 676.522 550.370 676.810 574.703 C 677.009 591.525 676.748 601.602 676.081 602.849 C 675.509 603.917 673.344 605.242 671.271 605.792 C 668.289 606.584 670.639 606.794 682.500 606.798 C 695.627 606.803 696.965 606.660 693.212 605.652 C 690.854 605.018 688.498 603.825 687.978 603.000 C 687.457 602.175 687.020 591.825 687.008 580.000 C 686.981 555.108 686.016 547.293 682.197 541.049 C 678.436 534.900 674.007 532.501 666.500 532.547 C 658.963 532.594 652.850 535.261 646.638 541.213 L 641.993 545.664 L 639.505 541.419 C 635.786 535.073 630.953 532.483 623.000 532.575 C 615.463 532.662 609.653 535.147 603.750 540.809 L 600.000 544.406 L 600.000 538.870 C 600.000 532.816 599.375 531.444 597.375 533.104 C 596.655 533.701 592.113 535.480 587.283 537.057 C 578.520 539.917 578.511 539.924 583.215 539.962 C 586.828 539.991 588.172 540.452 588.965 541.934 C 589.609 543.137 590.000 554.596 590.000 572.243 C 590.000 603.450 590.008 603.407 583.862 605.631 C 580.962 606.681 582.561 606.845 595.500 606.826 C 608.658 606.806 609.973 606.662 606.212 605.652 Z M 989.000 605.797 C 979.878 603.846 976.111 601.918 971.582 596.880 C 963.857 588.288 960.069 573.618 962.020 559.856 C 963.407 550.079 966.167 544.391 972.252 538.767 C 977.842 533.601 977.407 532.858 970.653 536.033 C 960.036 541.024 952.049 553.557 951.216 566.534 C 949.714 589.940 964.865 606.994 987.000 606.813 L 993.500 606.760 L 989.000 605.797 Z M 1082.796 605.631 C 1080.209 605.009 1077.509 603.915 1076.796 603.201 C 1075.777 602.179 1075.437 591.109 1075.206 551.361 C 1074.932 504.170 1074.800 500.867 1073.206 501.536 C 1072.268 501.930 1067.675 503.514 1063.000 505.054 L 1054.500 507.855 L 1059.441 508.178 C 1064.105 508.482 1064.431 508.687 1065.240 511.829 C 1065.712 513.659 1065.963 534.681 1065.799 558.544 C 1065.469 606.404 1065.826 603.919 1059.000 605.836 C 1056.342 606.583 1059.349 606.813 1071.500 606.791 C 1085.547 606.766 1086.926 606.624 1082.796 605.631 Z M 1138.599 605.476 C 1135.904 604.736 1133.323 603.539 1132.865 602.815 C 1132.406 602.092 1132.024 588.647 1132.015 572.937 L 1132.000 544.374 L 1135.008 541.493 L 1138.015 538.611 L 1134.802 535.296 L 1131.589 531.980 L 1126.794 536.703 L 1122.000 541.425 L 1122.000 571.557 C 1122.000 605.106 1122.276 603.756 1115.000 605.825 C 1112.311 606.589 1115.207 606.820 1127.500 606.820 C 1142.666 606.821 1143.245 606.751 1138.599 605.476 Z M 1218.856 603.507 C 1223.878 600.750 1230.000 594.745 1230.000 592.576 C 1230.000 592.043 1228.537 593.020 1226.750 594.747 C 1219.596 601.658 1206.471 604.083 1195.834 600.459 C 1187.084 597.478 1180.068 588.083 1177.891 576.435 C 1174.714 559.430 1181.506 541.933 1193.440 536.376 C 1204.763 531.103 1219.000 535.057 1219.000 543.474 C 1219.000 547.110 1220.539 549.000 1223.500 549.000 C 1228.827 549.000 1229.811 541.701 1225.025 537.675 C 1220.486 533.855 1215.410 532.552 1205.000 532.536 C 1196.686 532.523 1194.751 532.869 1189.500 535.310 C 1173.750 542.631 1165.079 560.216 1168.050 578.811 C 1169.478 587.753 1171.966 593.019 1177.267 598.319 C 1184.020 605.073 1190.126 607.067 1203.000 606.726 C 1212.455 606.475 1214.033 606.154 1218.856 603.507 Z M 1284.500 604.637 C 1287.250 603.348 1291.808 600.460 1294.628 598.220 L 1299.756 594.146 L 1300.316 598.322 C 1301.106 604.207 1304.578 607.000 1311.105 607.000 C 1316.666 607.000 1320.309 605.465 1323.921 601.599 C 1326.949 598.358 1326.171 597.291 1322.745 599.986 C 1320.191 601.995 1314.579 602.655 1312.313 601.214 C 1309.583 599.479 1308.999 594.220 1308.978 571.185 C 1308.959 550.217 1308.742 547.028 1307.087 543.384 C 1304.615 537.941 1299.568 534.248 1292.722 532.873 C 1281.418 530.603 1270.156 534.175 1264.250 541.903 C 1258.465 549.472 1260.726 557.511 1267.890 554.849 C 1270.148 554.010 1270.246 553.631 1269.661 548.032 C 1269.104 542.706 1269.291 541.807 1271.501 539.182 C 1274.966 535.063 1278.960 533.684 1285.960 534.191 C 1296.097 534.924 1299.313 539.609 1299.426 553.804 L 1299.500 563.108 L 1289.500 566.902 C 1265.608 575.965 1258.000 582.209 1258.000 592.753 C 1258.000 604.412 1271.788 610.595 1284.500 604.637 Z M 1003.300 603.363 C 1016.581 596.569 1023.691 583.162 1022.798 566.591 C 1022.209 555.646 1018.636 547.696 1011.290 540.982 C 1003.600 533.954 992.108 530.563 984.000 532.929 C 982.101 533.483 983.003 533.775 987.755 534.143 C 995.378 534.734 1000.905 538.193 1005.759 545.408 C 1010.757 552.839 1012.510 559.814 1012.439 572.000 C 1012.358 585.922 1010.012 592.336 1002.288 599.750 C 996.677 605.135 997.073 606.548 1003.300 603.363 Z M 428.519 598.719 C 425.312 595.512 425.000 594.691 425.000 589.468 C 425.000 582.284 427.305 578.296 433.904 574.062 C 437.802 571.561 453.478 565.000 455.556 565.000 C 455.831 565.000 455.930 571.361 455.777 579.137 L 455.500 593.273 L 449.773 597.321 C 444.974 600.713 443.072 601.440 438.042 601.803 C 432.264 602.221 431.905 602.105 428.519 598.719 Z M 1273.763 600.435 C 1268.164 597.397 1266.310 588.649 1269.852 581.984 C 1270.871 580.068 1273.526 577.098 1275.754 575.384 C 1279.656 572.382 1291.561 566.892 1297.250 565.470 L 1300.000 564.783 L 1300.000 578.288 L 1300.000 591.793 L 1296.315 595.028 C 1288.950 601.494 1279.771 603.695 1273.763 600.435 Z" fill="#F2F2F0" fill-rule="evenodd"/>
  </g>
</svg>
